<svg xmlns="http://www.w3.org/2000/svg" xmlns:xlink="http://www.w3.org/1999/xlink" width="794" zoomAndPan="magnify" viewBox="0 0 595.5 595.499986" height="794" preserveAspectRatio="xMidYMid meet" version="1.0"><defs><g/></defs><path fill="#3dbdec" d="M 446.242188 0 C 364.09375 0 297.5 66.59375 297.5 148.742188 L 297.5 297.488281 L 297.515625 297.488281 L 297.488281 297.5 L 148.742188 297.5 C 66.59375 297.5 0 364.09375 0 446.242188 C 0 528.394531 66.59375 594.988281 148.742188 594.988281 L 297.5 594.988281 L 297.5 595 L 595 595 L 595 148.742188 C 595 66.59375 528.394531 0 446.242188 0 Z M 446.242188 0 " fill-opacity="1" fill-rule="nonzero"/><path fill="#1f2b5b" d="M 297.5 297.5 L 595 297.5 L 595 595 L 297.5 595 Z M 297.5 297.5 " fill-opacity="1" fill-rule="nonzero"/><path fill="#3dbdec" d="M 595 148.742188 L 595 297.488281 L 297.5 297.488281 L 297.5 148.742188 C 297.5 66.59375 364.09375 0 446.242188 0 C 528.394531 0 595 66.59375 595 148.742188 Z M 0 446.242188 C 0 528.394531 66.59375 594.988281 148.742188 594.988281 L 297.488281 594.988281 L 297.488281 297.5 L 148.742188 297.5 C 66.59375 297.5 0 364.09375 0 446.242188 Z M 534.835938 416.152344 L 476.347656 416.152344 L 476.347656 357.664062 L 416.152344 357.664062 L 416.152344 416.152344 L 357.664062 416.152344 L 357.664062 476.332031 L 416.152344 476.332031 L 416.152344 534.820312 L 476.332031 534.820312 L 476.332031 476.332031 L 534.820312 476.332031 L 534.820312 416.152344 Z M 534.835938 416.152344 " fill-opacity="1" fill-rule="nonzero"/><g fill="#1f2b5b" fill-opacity="1"><g transform="translate(-8.693954, 289.701857)"><g><path d="M 12.03125 -272.09375 L 87.109375 -272.09375 C 106.535156 -272.09375 121.101562 -266.707031 130.8125 -255.9375 C 140.53125 -245.164062 145.492188 -229.222656 145.703125 -208.109375 L 146.34375 -80.765625 C 146.550781 -53.953125 141.898438 -33.785156 132.390625 -20.265625 C 122.890625 -6.753906 107.160156 0 85.203125 0 L 12.03125 0 Z M 76.34375 -48.140625 C 86.257812 -48.140625 91.21875 -53 91.21875 -62.71875 L 91.21875 -203.03125 C 91.21875 -209.15625 90.742188 -213.75 89.796875 -216.8125 C 88.847656 -219.875 87.101562 -221.929688 84.5625 -222.984375 C 82.03125 -224.046875 78.128906 -224.578125 72.859375 -224.578125 L 66.828125 -224.578125 L 66.828125 -48.140625 Z M 76.34375 -48.140625 "/></g></g></g><g fill="#1f2b5b" fill-opacity="1"><g transform="translate(149.998057, 289.701857)"><g><path d="M 12.03125 -272.09375 L 85.84375 -272.09375 C 105.6875 -272.09375 120.09375 -267.234375 129.0625 -257.515625 C 138.039062 -247.804688 142.53125 -231.96875 142.53125 -210 L 142.53125 -197.96875 C 142.53125 -172 133.238281 -156.476562 114.65625 -151.40625 C 126.0625 -148.445312 134.085938 -141.582031 138.734375 -130.8125 C 143.378906 -120.039062 145.703125 -105.789062 145.703125 -88.0625 C 145.703125 -59.125 141.375 -37.210938 132.71875 -22.328125 C 124.0625 -7.441406 108.4375 0 85.84375 0 L 12.03125 0 Z M 76.34375 -169.78125 C 80.988281 -169.78125 84.15625 -171.519531 85.84375 -175 C 87.53125 -178.488281 88.375 -183.398438 88.375 -189.734375 L 88.375 -216.96875 C 88.375 -225.84375 84.46875 -230.28125 76.65625 -230.28125 L 65.25 -230.28125 L 65.25 -169.78125 Z M 70.640625 -47.828125 C 84.785156 -47.828125 91.859375 -54.582031 91.859375 -68.09375 L 91.859375 -102 C 91.859375 -110.226562 90.644531 -116.453125 88.21875 -120.671875 C 85.789062 -124.898438 81.515625 -127.015625 75.390625 -127.015625 L 65.25 -127.015625 L 65.25 -48.140625 Z M 70.640625 -47.828125 "/></g></g></g></svg>